<?xml version="1.0" standalone="no"?>
<!DOCTYPE svg PUBLIC "-//W3C//DTD SVG 20010904//EN"
 "http://www.w3.org/TR/2001/REC-SVG-20010904/DTD/svg10.dtd">
<svg version="1.0" xmlns="http://www.w3.org/2000/svg"
 width="600.000000pt" height="600.000000pt" viewBox="0 0 600.000000 600.000000"
 preserveAspectRatio="xMidYMid meet">
<metadata>
Created by potrace 1.16, written by Peter Selinger 2001-2019
</metadata>
<g transform="translate(0.000000,600.000000) scale(0.100000,-0.100000)"
fill="#000000" stroke="none">
<path d="M1553 3659 c-154 -28 -271 -225 -318 -534 -15 -102 -20 -366 -9 -462
l7 -53 41 1 c23 1 52 4 65 8 l24 7 -2 175 -2 176 23 7 c30 8 381 8 402 0 14
-5 16 -31 16 -184 l0 -177 31 -7 c17 -3 49 -6 70 -6 l39 0 2 93 c9 368 -23
599 -108 774 -66 138 -166 202 -281 182z m100 -168 c51 -46 102 -166 125 -293
5 -25 6 -51 3 -56 -8 -14 -372 -26 -390 -13 -13 8 -12 22 7 97 37 150 101 262
166 289 35 15 51 11 89 -24z"/>
<path d="M5221 3637 c-61 -31 -125 -106 -170 -201 -45 -93 -65 -164 -86 -303
-15 -100 -20 -391 -9 -477 l7 -46 41 1 c22 1 52 4 66 8 l24 7 -3 173 c-2 137
0 175 11 182 22 15 415 11 425 -3 4 -7 7 -90 6 -184 l-2 -171 37 -7 c20 -3 52
-6 70 -6 l32 0 1 108 c4 384 -24 582 -105 754 -34 72 -100 146 -151 169 -56
26 -139 24 -194 -4z m174 -161 c53 -57 115 -227 115 -315 0 -25 -4 -31 -22
-31 -13 0 -101 -3 -195 -7 -158 -5 -173 -5 -179 11 -9 24 30 178 62 244 45 92
116 158 159 146 11 -3 38 -25 60 -48z"/>
<path d="M445 3630 c-14 -23 12 -855 31 -968 l5 -33 67 3 c52 2 67 6 66 18 0
8 -4 61 -8 118 -7 102 -7 102 16 102 13 0 113 -29 223 -64 l200 -65 14 32 c7
18 16 48 18 67 l5 36 -196 64 c-108 35 -196 68 -196 74 0 11 59 75 254 276 83
85 166 171 183 190 l33 36 -48 47 -48 48 -195 -197 c-107 -109 -212 -214 -234
-235 l-40 -38 -7 37 c-4 20 -7 133 -7 250 l-1 212 -64 0 c-36 0 -68 -5 -71
-10z"/>
<path d="M2042 3132 c2 -325 7 -514 13 -520 6 -4 36 -6 68 -4 l57 4 0 111 c0
62 4 117 8 123 5 8 72 -17 217 -82 115 -52 215 -94 221 -94 11 0 54 91 54 115
0 6 -63 40 -140 75 -77 34 -140 66 -140 70 0 4 35 24 78 45 109 54 211 157
236 239 45 144 -23 271 -187 350 -89 44 -183 62 -355 72 l-133 7 3 -511z m349
334 c102 -32 180 -92 195 -152 8 -33 -19 -94 -60 -132 -70 -66 -211 -131 -295
-135 l-46 -2 -5 210 c-3 116 -4 216 -1 224 5 17 142 9 212 -13z"/>
<path d="M4145 3634 c-11 -2 -97 -5 -192 -6 -94 -2 -174 -6 -177 -9 -6 -6 10
-709 21 -907 l5 -102 246 2 247 3 3 68 3 67 -174 0 c-137 0 -177 3 -186 14 -8
9 -11 51 -9 122 l3 109 90 5 90 5 0 65 0 65 -92 3 c-68 2 -93 6 -97 17 -8 21
-9 312 -1 324 4 7 53 11 124 11 65 0 139 3 165 6 l47 7 -3 66 -3 66 -45 1
c-25 1 -54 0 -65 -2z"/>
<path d="M2943 3613 c-3 -7 -1 -25 4 -40 9 -27 13 -28 91 -33 135 -9 126 20
130 -418 3 -380 0 -418 -38 -462 -40 -46 -31 -50 115 -50 93 0 135 3 135 11 0
6 -13 26 -30 45 -16 18 -32 48 -35 66 -3 18 -5 197 -3 396 l3 364 28 24 c24
21 38 24 103 24 l75 0 15 36 c8 20 12 39 9 43 -4 3 -140 6 -302 6 -223 0 -297
-3 -300 -12z"/>
<path d="M4356 3591 c-5 -7 3 -306 22 -796 l7 -180 233 -3 c152 -1 240 1 253
8 17 10 20 20 17 73 l-3 62 -176 -4 c-105 -2 -179 1 -182 6 -3 5 -13 192 -22
414 -9 222 -18 410 -20 417 -5 14 -121 17 -129 3z"/>
</g>
</svg>
